<?xml version="1.0" encoding="utf-8"?>
<!-- Generator: Adobe Illustrator 24.0.2, SVG Export Plug-In . SVG Version: 6.00 Build 0)  -->
<svg version="1.1" id="Layer_1" xmlns="http://www.w3.org/2000/svg" xmlns:xlink="http://www.w3.org/1999/xlink" x="0px" y="0px"
	 viewBox="0 0 500 500" style="enable-background:new 0 0 500 500;" xml:space="preserve">
<style type="text/css">
	.st0{display:none;fill:#F3F1DD;}
	.st1{fill-rule:evenodd;clip-rule:evenodd;fill:#E69634;}
</style>
<rect class="st0" width="500" height="500"/>
<g>
	<path class="st1" d="M361.6,319.6H138.3V319c0-36.7-38-89.6-38-89.6c0,0,20.8,12.9,49.7,19.3c-0.3,4.5,0.8,9.2,3.2,14.2
		c9.8,19.9,30.7,22.3,52,11.8c21.2-10.6,34.9-23.6,25-43.5c-2.6-5.3-6-9-10-11.6c14.8-31.7,29.8-68.3,29.8-68.3
		c0,0,15,36.6,29.8,68.3c-4,2.5-7.4,6.3-10,11.6c-9.9,19.9,3.7,32.9,25,43.5c21.2,10.5,42.1,8.1,52-11.8c2.5-5,3.5-9.8,3.2-14.2
		c28.9-6.4,49.7-19.3,49.7-19.3c0,0-38,52.9-38,89.6L361.6,319.6z"/>
	<polygon class="st1" points="361.6,341.4 361.6,348.5 250,348.5 138.3,348.5 138.3,341.4 	"/>
	<rect x="138.3" y="326.4" class="st1" width="223.3" height="8.1"/>
</g>
</svg>
